<svg width="512" height="512" viewBox="0 0 512 512" fill="none" xmlns="http://www.w3.org/2000/svg">
<rect width="512" height="512" fill="white" style="fill:white;fill-opacity:1;"/>
<g clip-path="url(#clip0_53_3921)">
<path d="M256 64L376 184L256 304L136 184L256 64Z" fill="white" style="fill:white;fill-opacity:1;"/>
<mask id="mask0_53_3921" style="mask-type:alpha" maskUnits="userSpaceOnUse" x="136" y="64" width="240" height="240">
<path d="M256 64L376 184L256 304L136 184L256 64Z" fill="white" style="fill:white;fill-opacity:1;"/>
</mask>
<g mask="url(#mask0_53_3921)">
<rect x="152" y="64" width="212" height="80" fill="#181B1F" style="fill:#181B1F;fill:color(display-p3 0.0941 0.1059 0.1216);fill-opacity:1;"/>
<rect x="152" y="224" width="212" height="80" fill="#115E23" style="fill:#115E23;fill:color(display-p3 0.0666 0.3677 0.1368);fill-opacity:1;"/>
</g>
<path d="M196 124L256 184L196 244L136 184L196 124Z" fill="#C52B2C" style="fill:#C52B2C;fill:color(display-p3 0.7725 0.1686 0.1725);fill-opacity:1;"/>
</g>
<path d="M146.336 449V346.6H163.68C170.464 346.6 175.392 348.051 178.464 350.952C181.579 353.811 183.157 358.589 183.2 365.288C183.285 368.787 183.328 371.88 183.328 374.568C183.328 377.213 183.285 379.795 183.2 382.312C182.987 386.109 182.197 389.117 180.832 391.336C179.509 393.555 177.419 395.155 174.56 396.136V398.696C177.504 399.677 179.659 401.277 181.024 403.496C182.432 405.715 183.2 408.787 183.328 412.712C183.413 415.869 183.456 418.813 183.456 421.544C183.456 424.232 183.413 427.155 183.328 430.312C183.072 436.968 181.429 441.747 178.4 444.648C175.371 447.549 170.485 449 163.744 449H146.336ZM157.536 439.016H163.744C166.517 439.016 168.587 438.291 169.952 436.84C171.36 435.389 172.085 433.171 172.128 430.184C172.213 427.197 172.256 424.36 172.256 421.672C172.256 418.984 172.213 416.147 172.128 413.16C172.085 409.235 171.381 406.44 170.016 404.776C168.651 403.112 166.432 402.28 163.36 402.28H157.536V439.016ZM157.536 392.296H163.616C166.432 392.296 168.523 391.464 169.888 389.8C171.296 388.093 172.021 385.512 172.064 382.056C172.149 378.984 172.192 376.083 172.192 373.352C172.192 370.621 172.149 367.741 172.064 364.712C172.021 361.939 171.296 359.891 169.888 358.568C168.523 357.245 166.453 356.584 163.68 356.584H157.536V392.296ZM213.079 449.96C206.252 449.96 201.367 448.509 198.423 445.608C195.479 442.664 193.943 437.821 193.815 431.08C193.644 417.043 193.559 402.963 193.559 388.84C193.559 374.717 193.644 360.637 193.815 346.6H205.015C204.887 355.944 204.802 365.48 204.759 375.208C204.716 384.936 204.716 394.664 204.759 404.392C204.802 414.077 204.866 423.592 204.951 432.936C204.951 435.539 205.634 437.48 206.999 438.76C208.364 439.997 210.391 440.616 213.079 440.616C215.852 440.616 217.879 439.997 219.159 438.76C220.482 437.48 221.143 435.539 221.143 432.936C221.228 423.592 221.292 414.077 221.335 404.392C221.42 394.664 221.442 384.936 221.399 375.208C221.399 365.48 221.314 355.944 221.143 346.6H232.343C232.514 360.637 232.599 374.717 232.599 388.84C232.599 402.963 232.514 417.043 232.343 431.08C232.258 437.821 230.722 442.664 227.735 445.608C224.791 448.509 219.906 449.96 213.079 449.96Z" fill="#181B1F" style="fill:#181B1F;fill:color(display-p3 0.0941 0.1059 0.1216);fill-opacity:1;"/>
<path d="M244.086 449V346.6H262.006C268.705 346.6 273.569 348.051 276.598 350.952C279.627 353.811 281.27 358.589 281.526 365.288C281.697 370.451 281.782 375.123 281.782 379.304C281.782 383.443 281.697 387.731 281.526 392.168C281.27 398.824 279.627 403.603 276.598 406.504C273.569 409.405 268.662 410.856 261.878 410.856H255.286V449H244.086ZM255.286 400.872H261.878C264.737 400.872 266.827 400.211 268.15 398.888C269.473 397.523 270.198 395.475 270.326 392.744C270.454 389.672 270.539 386.579 270.582 383.464C270.625 380.307 270.625 377.171 270.582 374.056C270.539 370.899 270.454 367.784 270.326 364.712C270.198 361.939 269.473 359.891 268.15 358.568C266.87 357.245 264.822 356.584 262.006 356.584H255.286V400.872ZM285.682 449L297.394 346.6H316.914L328.626 449H317.17L314.61 421.352H299.634L297.138 449H285.682ZM300.722 411.368H313.586L311.474 388.968L308.978 356.584H305.394L302.834 388.968L300.722 411.368ZM337.336 449V346.6H348.536V439.016H370.168V449H337.336Z" fill="#C52B2C" style="fill:#C52B2C;fill:color(display-p3 0.7725 0.1686 0.1725);fill-opacity:1;"/>
<defs>
<clipPath id="clip0_53_3921">
<rect width="240" height="240" fill="white" style="fill:white;fill-opacity:1;" transform="translate(136 64)"/>
</clipPath>
</defs>
</svg>
